<mxfile host="Electron" agent="Mozilla/5.0 (Windows NT 10.0; Win64; x64) AppleWebKit/537.36 (KHTML, like Gecko) draw.io/24.6.1 Chrome/124.0.6367.207 Electron/30.0.6 Safari/537.36" modified="2024-09-25T23:28:26.790Z" version="24.6.1" etag="fINSijvureY3pzro4VfA" type="device" pages="2">
  <diagram id="sOrP0x34bsf5syL63o3y" name="Gantt">
    <mxGraphModel dx="1434" dy="844" grid="1" gridSize="10" guides="1" tooltips="1" connect="1" arrows="1" fold="1" page="1" pageScale="1" pageWidth="827" pageHeight="1169" math="0" shadow="0">
      <root>
        <mxCell id="0" />
        <mxCell id="1" parent="0" />
        <mxCell id="u7pDfSTz9XMuOElVoNYD-1" value="" style="shape=image;verticalLabelPosition=bottom;labelBackgroundColor=default;verticalAlign=top;aspect=fixed;imageAspect=0;image=data:image/png,iVBORw0KGgoAAAANSUhEUgAAAb8AAAD/CAYAAABhPNiqAAAACXBIWXMAAA7DAAAOwwHHb6hkAAAazklEQVR4Xu2dwXXizBaEJ4s/EOfhMEjCMTgER+AEvGbtrZfeesnSW94phnpz3dMSMqAe38t3z/nGILWEoIuqVguGX//9998eavDr16/ucoAsoGEYgXRG+BUC44DsoGEYAeFXDIwDsoOGYQSEXzEwDsgOGoYREH7FwDggO2gYRkD4FQPjgOygYRgB4TfD6+vrXvXy8tJd/x12u91hXw8PD9311wLj+Hdcs49H6eUngoZ/Bh8fHwcNPj09dddnZ1j4+c2suuYb+u3t7bDP7XbbXd/j+fn5sI06t7fevL+/H9pdI/xchN9p7u/vj6/Wfv/5+bm/u7vrtjsH7U/1+PjYXd9jqcZc1+hjF+GXA+sqlvxFmrmmfq/FKQ9U4Kl0AtBbX4Eh4ac3sMoCkZn02s3hzmq3Jfy+UiH89HqrrBf1V6/dHNZFuy3h9/PJqOG5kuY2m013u3/FKQ/UMWvdTwzuazEk/Dx96Bdc9d0X1YaoQOqtXwPC79/gWYKlg5Qe1+y7pbgIv8vIHH7uL/mbzp482DpHw7AuQ8LPApAgJAJVbzSv0bjXaxsbl40slkPQo3K3dcWRfZxG032bagxSHZtDWqXbPpZooFoep3B1uzVYjfJ8zH4eLsJvHr12Kr326hNXb+Ss19V9ob/u8165j6xF9YNwxcGYp3ymNCaW9LF0p239mCo9r/asc6le1M7Hourta+o1yUSF8DN6/V3WcE9PPU9yO+nRXmTfXOJD9jTrT/v2MfQeT2gffiyVbsdrftpepWPT8sxaWz383Pl6sXTfL7pe1NjOhtOWxGRjiOX9eZ073oJRp3vf7WOqraontF5539Es27JAJLgoyrbaN8e1yR5+mlpU+U3ufmmnHNW/vdK6Xnl/LveDjSG+wdvHbDW2tI+ts14pGL+zL7WPIRrLptN7D2kbrctEpfCL66zBVk+i50luF0vt9BhTFX0ohpjL++89nt97vfKxzz22yrrOwOrhZyNxp8SzsPhC2QBkauo4rdO2rZHEzhIWiIVkA4hveovAHdjuKx6T96PH9TF5mdA+PHoS3nf7+Cofe2/ZWmQPPxu8teHXTn3hNrG/4psyDqhaXRiX+8EhKq3pvrTncj9PaUw118c6Ti33c4n7ntuut8zGpOPUfrRMx+Nlvfvatn2/ZKBq+Fk/PW2672J/uZ3eE9qv+t19v9SHvK2XtVrx4/XeU3ostVf5/ad9uezVPhtU9Z7/T2XV8NML43KnCXdUHM27pl68njhEKyQ9jg1UI+LYqT6Gdl+xQ71f0e5bSEBeHsttpo7TtbY4MoefZwliiEUN+Qxnqr8ivb4TLvdD3Jcey6YxF6RL+1j7U1vrPZbbLN2Xj6FXPlaZkLWvvzInB28mqoaftKX7PW32dNBrZ871IdOuj++D2K5dPtXOx+LgzMCq4Wcjmao4mnf1xCOmOtMvehSIR/P6q85QecQjlnZ8u++55+M2U8fpmnp+1yJz+Lnfpkrr1W6qvyI9XQhX7Aef4at/PdKNb+J2X0v7eO75uM3SffkYehW3VdhpUBlDMFsAVgq/6BlTMwmip4NeO3GJD5l2vY7bFdu1y6faTR3rT2bV8OuNeNuyWPxmlWFoxCx02+vdWR7l+g3de9F9BqF9+hgkGK9vOz6eHdr09Lg+Ju/b2zlIdYzev9v0xO4AVvn5rEXW8NNrearUH2oXp1ncX+pDa0NYF55dsF5csR88pehtVDEwWo0t7WNvF4/R5TZL9+Uglfb0GmhZi45PeL1DfW3NXZsK4ac+UN/aQ+w1wgMsLVM76cJaie28zLozuq+a8yFrSI/vY9Jfb+N9+PF67ynt18fq95b24dJ9M3WsP5nVwi++0aORGL8xPZp3Z7TljosmoXKnTb3oFp3Kpul1bccL7yeW9+F9R1Nqy230OPGxXV7m57MWWcPP/RtnA0zUktppWa+/VN6mPety/7hiP8Q3virqQrQaW9rHNo5euc3SfenvVPm49LdXvfffTyZz+PVKmvbARrReFqvnSe5fc4kPef/WSu/xenXqksPUsf5kVgs/d1B8cSN+8dVBcZlDUX/bFzIamtfZYNq2Hs2rHLCmd2wSSzQrbeMzyLjvOKWk0ZAfJ7aR0D0SU1utEyqb2VpkDb+pfjR+c6md7qu/1EexL/wGFXE0rTZe5/ZtP7i/VA5Y0zu2JX3cakq3fT8+/lK96Hbcn8sjde0nrm9fkyxk1LB1FUv6Uz9KB2376CNqp77zbbdxX2ofcVux1IeiHnRby7RuygO1vT1YpW1arbq8TPi9Zi1mYLXwg39D1vADMGgYRkD4FQPjgOygYRgB4VcMjAOyg4ZhBIRfMTAOyA4ahhEQfsXAOCA7aBhGQPgVA+OA7KBhGAHhVwyMA7KDhmEEhF8xMA7IDhqGERB+xcA4IDtoGEZA+BUD44DsoGEYAeFXDIwDsoOGYQSEXzEwDsgOGoYREH7FwDjG4f+dP/7nwHA5aBhGQPgVA+MYh395gfC7LmgYRkD4FQPjGMfa4eefj9FP1/TWVwUNwwgIv2JgHONYO/z0O2qu3vqqoGEYAeFXjEzG4TMb/WCmfnQ1/pBx/EHZ2M6BE8+GtG38Mdr4o51xH1ru0g/hxh8ZjT/iqX23690m/gCp99eG36nj8Q+Jan/tPt3Oz7Mt76N9Pr0fro3PSX+z/LAt4QcjIPyKkck4fGZj82/LvyAdz4BiaZ0MvVfap37NXW0UFL3HUDhovX8Fuy0FitYLB1avYvgtOZ6pYFMppKbaaB9ap/1MvWYOOH8YJ5a3/+kQfjACwq8YGcNPJbPXmVY0dp19te18RuYg8RmWg0zrfEakwNIybaNSW22nNmrvx3Q5bNXGZ0w+E/N97duPr9BTxfBbcjxa5/KyGK7eV3zeXiYc1j4WLfM+tax3X/tqz1B/KoQfjIDwK0bW8IvLbe4266l2Yq60H7VxSDmQInHfvfKZlEvtva0DJobKXPl4etvFbR24U8/bz6dXPluNZ7v6qwGABww/HcIPRkD4FaNC+PlM7dLwc9hdEn4OO5fvi++Gnx//VPj5Maae91z4xX0q7BS4MQQzBCDhByMg/IqRNfwUCJrCi2csPlOaCgHh6chesBlPO3raU8s0zahtdN8Vg60lTnvqvrbzFGcMnCXHc074eapVyz04iNOeLXoM4fU+rrnn+FMg/GAEhF8xsoZfr2z2sV27DwdJr3ohEssBNXcmNfc4DukYYkuOx21OhV8MZpeWTz0flZ/T1HH4Nf3JEH4wAsKvGFnDT9fWfHaiMyoHgNDZoCtub/TJRp+FxfK1M6H9u42vgfmsSH8VFn58l9p5exGnEBVcPq42xE4djz/cMhV+8bjVtheyen18RhvLH6DRPuJ6HY+vX/50CD8YAeFXjKzh11sPtwnhByMg/IpB+EF2CD8YAeFXjEzG4WlDVW893CaEH4yA8CsGxgHZQcMwAsKvGBgHZAcNwwgIv2JgHJAdNAwjIPyKgXFAdtAwjOAQfsd/AAAAbodeKkJO1KG95QBZQMMwAsKvGBgHZAcNwwgIv2JgHJAdNAwjIPyKgXFAdtAwjIDwKwbGAdlBwzACwq8YGAdkBw3DCAi/YmAckB00DCMg/IqBcUB20DCMgPArBsYB2UHDMALCrxgYB2QHDcMIyoff6+vr8Rfj9vuXl5dum0pgHJAdNDyPfOyUn/mHot/f37vroXj43d3d7T8/Pw+o9LfXrhIYB2QHDU8Tayr8FHguwm+a0uH39PR0EMB2u93vdrvD7cfHx27bKmAckB003EdBJh/TbVUv/HxWeH9/f2hP+E1TOvze3t4OQlDgKQBVWtZrWwWMA7KDhk+jmpv2FITfPGXDT1OeKk91bjabw32V1rXtq4BxQHbQ8GlUhN9llA2/5+fng0D0gRcv89SnpkNj20pgHNclDppcWuZZBVf1GYWRoOHTqAi/yygbfh8fHweBxGt8nvrUuti2EhjHdSH8xoOGT6Mi/C6jZPjpYu+pUpvettnBOCA7aPg0KsLvMkqGn8/w5uqUcLKCcUB20PBplngY4TdPyfCbu7bnL737I8PVwDggO2j4NCrC7zLKhZ+v0ehTnr1Pdfp/PlCpbbs+OxgHZAcN91GQ9SoO5BWIU1X1Us+5lAu/WwfjgOygYRgB4VcMjAOyg4ZhBIRfMTAOyA4ahhEQfsXAOCA7aBhGQPgVA+OA7KBhGAHhVwyMA7KDhmEEhF8xMA7IDhqGERzC7/gPAADA7dBLRciJOrS3HCALaBhGQPgVA+OA7KBhGAHhVwyMA7KDhmEEhF8xMA7IDhqGERB+xcA4IDtoGEZA+BUD44DsoGEYAeFXDIwDsoOGYQSEXzEwDsgOGoYREH7FwDggO2gYRkD4FQPjgOygYRhB2fD7/Pw8/nj/n3p/f98/Pj5221cB44DsoOHlvLy87D8+Po4Otz/cfn5+7raFr5QNv7nabDbdbSqAcUB20PAyFHxTVX2Qfw3Kh9/Dw8Ph/v39/XHJ/iCatn0VMA7IDhpehmayVNvt9nD/7u5uv9vtDssqe9y1uJnw09meizM/gJ8LGl6Gwy8GnadAn56evrSFvykffm1Vnw/HOCA7aHgZGsT7sw0KQgff6+trtz185ebCT1V5VIRxrEecPXBVnkX4V6Dh5cjLYikMPdsF85QPPwtB8+EaEakkkLZ9FTCO9SD8xoCGl+Hg03U+3ba/qfjAy2luJvyEbrti20pgHJAdNHwaDeZd+jCfl+vDLypNg8b28Dc3E36c+QHkAA2fJg7k/TkGedzb29thGeF3mvLh1yu+6gDwc0HDy/DXGnrFVx1OUzb8pv6Hl+ofAcY4IDtoeBma7tRsVvQ6feKzusddi7Lhd6tgHJAdNAwjIPyKgXFAdtAwjIDwKwbGAdlBwzACwq8YGAdkBw3DCAi/YmAckB00DCMg/IqBcUB20DCMgPArBsYB2UHDMALCrxgYB2QHDcMIDuF3/AcAAOB26KUi5EQd2lsOkAU0DCMg/IqBcUB20DCMgPArBsYB2UHDMALCrxgYB2QHDcMICL9iYByQHTQMIyD8ioFxQHbQMIyA8CsGxgHZQcMwAsKvGBgHZAcNwwgIv2JgHJAdNAwjIPyKgXFAdtAwjKB8+D09Pe3f39/3ro+Pj/3Ly0u3bQUwjnV4e3s7KuhPVdfSvwINT3N/f/9/LX5+fv61vqdTFTr9m9Lh9/r6euz6v+vh4aG7TXYwjnWIA6i2np+fu9vAeaDhPgqwtto2Uzol/P6mbPjpjM+lENSIScs3m81BIIQffAebik3k7u7ucOan0rq2PZwPGu6j2m63B1xtG+u0qr9dk7LhZxHIoHrrq4JxrEMv/Ha73WEZZ37XBQ3PE88A23WE33LKhp/r1k73MY51sKm0pWssvfZwPmh4niXh59J1wTjzBX8g/IqBcazDVPipZC69beA80PA83wk/l2Yp2ra3DuFXDIxjHWwqUU+a7nTpWnJsD+eDhueZC7+Ipubjh/6YCv1K2fDz9RiZVm99VTCOdeiFn3BhLNcDDc+zNPyEdOlCo18pG35RIO2nPXWdpqoQMI514MxvHGh4nrnw0wf8rMX2zI/rfl8pG37xo+i9IvzgO0xdS1Hd2uzC2qDhPnMadJup0tcj4r6gcPgJBaBGSTEEdTuO3quBcazD3P/wIp31toHzQMN9loSfBvWxnTSq7zzH/cBvSoffLYJxQHbQMIyA8CsGxgHZQcMwAsKvGBgHZAcNwwgIv2JgHJAdNAwjIPyKgXFAdtAwjIDwKwbGAdlBwzACwq8YGAdkBw3DCA7hd/wHAADgduilIuREHdpbDpAFNAwjIPyKgXFAdtAwjIDwKwbGAdlBwzACwq8YGAdkBw3DCAi/YmAckB00DCMg/IqBcUB20DCMgPArBsYB2UHDMALCrxgYB2QHDcMICL9iYByQHTQMIyD8ioFxQHbQMIygZPg9Pz8ff8T/T31+fu7f3t72j4+P3W2qgHGsy+vr61FR+/3Ly0u3DVwGGl6ONLjb7Y6K3B88brPZdNvCV0qGnwQxVzKw3nYVwDjW4+7u7jCIEir97bWDy0DDy9hutwcdtiVdSqu9beAPpcPv/f39/8s0GtKoyFX1DBDjWI+np6eDdmQ6Hm1Xn0n4F6DhZbg8AyGPc0mrbXv4ys2En/n4+DisUxC26yqAcayHB08KPI+6q+roX4KGT/Pw8HDQnyoul+eppM+4HP7m5sLP66pOWWEc66BppKibOMpmium6oOHT3N/fH9W3P3zGwcs8uO95H3zlZsNP1a6rAMaxDv4QVbxe7KlPppiuCxpeRvygS1uE32luNvwknHZdBTCOdfCIOl7j89Sn1sW2cBloeBnt5xikQ3meimnP09xc+Hm0xDU/WEqcYpoqteltC98HDZ+PB2meCoVpbib82lGSLhjHbaqAcVwfn+HNlTTX2xa+DxpehjxMvqbbuu5s3+OrDssoHX5TVXlKAOO4PnPX9vyl96rT6P8CNLwMT3G2xTXoZZQMv97/8CJz0plf1TM+g3FcF3+qc2o0HT9y7lE4XAYaXoZCzgMzlfyN750up2T43TIYB2QHDcMICL9iYByQHTQMIyD8ioFxQHbQMIyA8CsGxgHZQcMwAsKvGBgHZAcNwwgIv2JgHJAdNAwjIPyKgXFAdtAwjIDwKwbGAdlBwzCCQ/gd/wEAALgdeqkIOVGH9pYDZAENwwgIv2JgHJAdNAwjIPyKgXFAdtAwjIDwKwbGAdlBwzACwq8YGAdkBw3DCAi/YmAckB00DCMg/IqBcUB20DCMgPArBsYB2UHDMALCrxgYB2QHDcMICL9iYByQHTQMIygbfpvNZj9Vz8/P3W0qgHGsy/39/VFF+8PtXhu4DDT8PV5eXva73e6oyv3+7e1tf3d3120Lfygbfg8PD0cp/F2EH5yLjOb9/f2gI93utYHLQMPL+fj4OGixLflfrz384SbCr7e+KhjHumiE/fT0tH99fT3c7rWBy0DDy5AOVZ+fn/vHx8f/L5f3ceZ3GsKvGBjHelhT8bb+tu3gMtDwMjwDUXkma01uIvxiSTC99lXAONZDZ3tRPyoti23gctDwMnTGp9I1Pl/z07LtdtttD18h/IqBcayHSlNNvq/gU8U2cDloeBlzxfXo09xE+PXWVwXjWAdfX4mf8LTGYiDC5aDhZbgUdL7Gp7NAVfVB/jUg/IqBcayDr6/0CqO5Lmh4GZ72jIMvBaEKTZ6G8CsGxnF9/N2+3hmezYbv/F0PNLyMeJanMz/hQZrW9baBP9xE+LXF9/zgOzjgeuuY+rw+aHgZ+npDr3RGqP/ko7cN/KFs+PE/vMC10Cfp5j7VqfVMM10PNLwcBWD8orvO+Ai+ZZQNv1sF44DsoGEYAeFXDIwDsoOGYQSEXzEwDsgOGoYREH7FwDggO2gYRkD4FQPjgOygYRgB4VcMjAOyg4ZhBIRfMTAOyA4ahhEQfsXAOCA7aBhGQPgVA+OA7KBhGAHhVwyMA7KDhmEEhF8xMA7IDhqGERB+xcA4IDtoGEZwCL/jPwAAALdDLxUhJ+rQ3nKALKBhGAHhVwyMA7KDhmEEhF8xMA7IDhqGERB+xcA4IDtoGEZA+BUD44DsoGEYAeFXDIwDsoOGYQSEXzEwDsgOGoYREH7FwDggO2gYRkD4FQPjgOygYRgB4VcMjAOyg4ZhBKXD7/Pzc9+rh4eHbvsKYBzrcXd3t395edl/fHwclbTfv7+/7x8fH7vt4TzQ8DKen5+PKvxa0mSvPXyldPhNFeEH30XBF0Ovrd42cB5oeBkaiPWK8FvGTYRf5bBrwTjW4fX19aim/WHErTDUcp317Xa7v9rD+aDhZTj89Le3HuYh/IqBcayDa7vddtfD9UDDyyD8LoPwKwbGcX2kH9ctaelfgYaX0Zv2fHt7Q6MLuYnwa+v+/r7bvgIYx/Uh/MaChpfRCz9XZY+7FoRfMTCO60P4jQUNn0f89CdToae5ifC7JcPCOK6PBksuTGV90PD5uNDpaQi/YmAc66CPj7vaT3vqKxBtezgfNLwMXd+L3zGNZ35PT09f2sLfEH7FwDjWYbPZTP6nCareNnAeaHgZcUAWi8HYMkqHn82K8INroOlPfd9P3+tz8T+8XB80vAzr0SVdarrTsxIwT+nwu0UwDsgOGoYREH7FwDggO2gYRkD4FQPjgOygYRgB4VcMjAOyg4ZhBIRfMTAOyA4ahhEQfsXAOCA7aBhGQPgVA+OA7KBhGMEh/I7/AAAA3A69VIScqEN7ywGygIZhBIRfMTAOyA4ahhEQfsXAOCA7aBhGQPgVA+OA7KBhGAHhVwyMA7KDhmEEhF8xMA7IDhqGERB+xcA4IDtoGEZA+BUD44DsoGEYAeFXDIwDsoOGYQSEXzEwDsgOGoYRlA6/p6en/dvb2/FH/n/X+/t76Z/6xzjOY7PZHBXypz4/Pw/60breNi0PDw+H9tpOtdvt9q+vr2W1thZo+HvIz6Q1lzSI5k5TNvza0GtLRtXbLjsYx3lID1OlMOttE9FAa6pkTr1toA8aXs7Hx8dRZV+rqr9dk5Lht91ujxL4bTz39/eH5RoNPT4+Hs7+CD+IxPDzshhoc3qRvlwyI58parm0SPh9DzS8DOtTgzP5mpdLq5z5naZc+KnTXbdoOhjHefTC7/n5+XD/1JmfdObCdC4HDS9Dg3iVdNpbD/OUC79oYrdoRBjHeUTdxFLwzZ31CZuQ/vbWw/dAw8vwtWVd4vE1Py3TbEOvPXyldPh5mUfwsZZ+iCEbGMd5TIWfSoYypxfC77qg4WXMFVPtpykdfj7z64XfqdF8VjCO8+gNmnTNzh8o0Og6to8QftcFDS/DpaCz1/mDfmjxNOXCL374oDcX7iL8INILP+HreXNmoq8zqHSGyDW/y0HDy/C0pz744mVL9Aq/KRd+wmakkhj8ac8YjIQfRL5z5udPE3twFbdtP+0p/QlvC6dBw8uIZ3kadAndVs3NVMBvSoafRDD1/RcX4QeRGGC9inqxwcRQiwOutgi/74GGl6GvN/Tq1DVq+E3J8DMamduoXLqvkXvV6SmM4zxkFm3JRDSCbgdKHli1yzX9FPXG//ByHmh4OQrAONCXXgm+ZZQOv1sE41gXnyEyrbQeaBhGQPgVA+NYF4Wezug4m1sPNAwjIPyKgXFAdtAwjODXr1/7/wEh41/M7HU3PQAAAABJRU5ErkJggg==;" parent="1" vertex="1">
          <mxGeometry x="10" y="70" width="368.12" height="210" as="geometry" />
        </mxCell>
        <mxCell id="y6Vur_y6kFSTKeRqe08O-1" value="" style="group" parent="1" connectable="0" vertex="1">
          <mxGeometry x="20" y="450" width="160" height="200" as="geometry" />
        </mxCell>
        <mxCell id="y6Vur_y6kFSTKeRqe08O-4" value="G" style="align=center;strokeColor=#CCCCCC;html=1;" parent="y6Vur_y6kFSTKeRqe08O-1" vertex="1">
          <mxGeometry y="20.000000000000057" width="160" height="19.999999999999943" as="geometry" />
        </mxCell>
        <mxCell id="y6Vur_y6kFSTKeRqe08O-5" value="F" style="align=center;strokeColor=#CCCCCC;html=1;" parent="y6Vur_y6kFSTKeRqe08O-1" vertex="1">
          <mxGeometry y="40.00000000000023" width="160" height="19.999999999999943" as="geometry" />
        </mxCell>
        <mxCell id="y6Vur_y6kFSTKeRqe08O-6" value="E" style="align=center;strokeColor=#CCCCCC;html=1;" parent="y6Vur_y6kFSTKeRqe08O-1" vertex="1">
          <mxGeometry x="3.6948222259525195e-13" y="60.0000000000004" width="159.99999999999963" height="19.999999999999943" as="geometry" />
        </mxCell>
        <mxCell id="y6Vur_y6kFSTKeRqe08O-7" value="D" style="align=center;strokeColor=#CCCCCC;html=1;" parent="y6Vur_y6kFSTKeRqe08O-1" vertex="1">
          <mxGeometry x="3.6948222259525195e-13" y="80.00000000000023" width="159.99999999999963" height="19.999999999999943" as="geometry" />
        </mxCell>
        <mxCell id="y6Vur_y6kFSTKeRqe08O-8" value="Task Name" style="strokeWidth=1;fontStyle=0;html=1;" parent="y6Vur_y6kFSTKeRqe08O-1" vertex="1">
          <mxGeometry x="5.684341886080799e-14" width="159.99999999999994" height="19.999999999999943" as="geometry" />
        </mxCell>
        <mxCell id="y6Vur_y6kFSTKeRqe08O-9" value="C" style="align=center;strokeColor=#CCCCCC;html=1;" parent="y6Vur_y6kFSTKeRqe08O-1" vertex="1">
          <mxGeometry x="3.6948222259525195e-13" y="100.00000000000017" width="159.99999999999963" height="19.999999999999943" as="geometry" />
        </mxCell>
        <mxCell id="y6Vur_y6kFSTKeRqe08O-10" value="B" style="align=center;strokeColor=#CCCCCC;html=1;" parent="y6Vur_y6kFSTKeRqe08O-1" vertex="1">
          <mxGeometry x="3.6948222259525195e-13" y="120.00000000000011" width="159.99999999999963" height="19.999999999999943" as="geometry" />
        </mxCell>
        <mxCell id="y6Vur_y6kFSTKeRqe08O-11" value="A" style="align=center;strokeColor=#CCCCCC;html=1;" parent="y6Vur_y6kFSTKeRqe08O-1" vertex="1">
          <mxGeometry x="3.979039320256559e-13" y="140.00000000000006" width="159.99999999999963" height="19.999999999999943" as="geometry" />
        </mxCell>
        <mxCell id="y6Vur_y6kFSTKeRqe08O-13" value="5" style="strokeWidth=1;fontStyle=0;html=1;container=0;align=right;" parent="1" vertex="1">
          <mxGeometry x="180" y="450" width="70" height="20" as="geometry" />
        </mxCell>
        <mxCell id="y6Vur_y6kFSTKeRqe08O-14" value="10" style="strokeWidth=1;fontStyle=0;html=1;container=0;align=right;" parent="1" vertex="1">
          <mxGeometry x="250" y="450" width="70" height="20" as="geometry" />
        </mxCell>
        <mxCell id="y6Vur_y6kFSTKeRqe08O-15" value="15" style="strokeWidth=1;fontStyle=0;html=1;container=0;align=right;" parent="1" vertex="1">
          <mxGeometry x="320" y="450" width="70" height="20" as="geometry" />
        </mxCell>
        <mxCell id="y6Vur_y6kFSTKeRqe08O-16" value="20" style="strokeWidth=1;fontStyle=0;html=1;container=0;align=right;" parent="1" vertex="1">
          <mxGeometry x="390" y="450" width="70" height="20" as="geometry" />
        </mxCell>
        <mxCell id="y6Vur_y6kFSTKeRqe08O-17" value="25" style="strokeWidth=1;fontStyle=0;html=1;container=0;align=right;" parent="1" vertex="1">
          <mxGeometry x="460" y="450" width="70" height="20" as="geometry" />
        </mxCell>
        <mxCell id="y6Vur_y6kFSTKeRqe08O-18" value="30" style="strokeWidth=1;fontStyle=0;html=1;container=0;align=right;" parent="1" vertex="1">
          <mxGeometry x="530" y="450" width="70" height="20" as="geometry" />
        </mxCell>
        <mxCell id="y6Vur_y6kFSTKeRqe08O-19" value="35" style="strokeWidth=1;fontStyle=0;html=1;container=0;align=right;" parent="1" vertex="1">
          <mxGeometry x="600" y="450" width="70" height="20" as="geometry" />
        </mxCell>
        <mxCell id="y6Vur_y6kFSTKeRqe08O-26" value="" style="align=left;strokeColor=#CCCCCC;html=1;container=0;" parent="1" vertex="1">
          <mxGeometry x="180" y="470" width="490" height="20" as="geometry" />
        </mxCell>
        <mxCell id="y6Vur_y6kFSTKeRqe08O-27" value="" style="align=left;strokeColor=#CCCCCC;html=1;container=0;" parent="1" vertex="1">
          <mxGeometry x="180" y="490" width="490" height="20" as="geometry" />
        </mxCell>
        <mxCell id="y6Vur_y6kFSTKeRqe08O-28" value="" style="align=left;strokeColor=#CCCCCC;html=1;container=0;" parent="1" vertex="1">
          <mxGeometry x="180" y="510" width="490" height="20" as="geometry" />
        </mxCell>
        <mxCell id="y6Vur_y6kFSTKeRqe08O-29" value="" style="align=left;strokeColor=#CCCCCC;html=1;container=0;" parent="1" vertex="1">
          <mxGeometry x="180" y="530" width="490" height="20" as="geometry" />
        </mxCell>
        <mxCell id="y6Vur_y6kFSTKeRqe08O-30" value="" style="align=left;strokeColor=#CCCCCC;html=1;container=0;" parent="1" vertex="1">
          <mxGeometry x="180" y="550" width="490" height="20" as="geometry" />
        </mxCell>
        <mxCell id="y6Vur_y6kFSTKeRqe08O-31" value="" style="align=left;strokeColor=#CCCCCC;html=1;container=0;" parent="1" vertex="1">
          <mxGeometry x="180" y="570" width="490" height="20" as="geometry" />
        </mxCell>
        <mxCell id="y6Vur_y6kFSTKeRqe08O-32" value="" style="whiteSpace=wrap;html=1;strokeWidth=2;fillColor=#CCCCCC;gradientColor=none;fontSize=14;align=center;strokeColor=#999999;container=0;" parent="1" vertex="1">
          <mxGeometry x="180" y="570" width="100" height="20" as="geometry" />
        </mxCell>
        <mxCell id="y6Vur_y6kFSTKeRqe08O-33" value="" style="whiteSpace=wrap;html=1;strokeWidth=2;fillColor=#CCCCCC;gradientColor=none;fontSize=14;align=center;strokeColor=#999999;container=0;" parent="1" vertex="1">
          <mxGeometry x="280" y="550" width="220" height="20" as="geometry" />
        </mxCell>
        <mxCell id="y6Vur_y6kFSTKeRqe08O-34" value="" style="whiteSpace=wrap;html=1;strokeWidth=2;fillColor=#CCCCCC;gradientColor=none;fontSize=14;align=center;strokeColor=#999999;container=0;" parent="1" vertex="1">
          <mxGeometry x="340" y="530" width="120" height="20" as="geometry" />
        </mxCell>
        <mxCell id="y6Vur_y6kFSTKeRqe08O-35" value="" style="whiteSpace=wrap;html=1;strokeWidth=2;fillColor=#CCCCCC;gradientColor=none;fontSize=14;align=center;strokeColor=#999999;container=0;" parent="1" vertex="1">
          <mxGeometry x="460" y="490" width="70" height="20" as="geometry" />
        </mxCell>
        <mxCell id="y6Vur_y6kFSTKeRqe08O-36" value="" style="whiteSpace=wrap;html=1;strokeWidth=2;fillColor=#CCCCCC;gradientColor=none;fontSize=14;align=center;strokeColor=#999999;container=0;" parent="1" vertex="1">
          <mxGeometry x="500" y="470" width="90" height="20" as="geometry" />
        </mxCell>
        <mxCell id="y6Vur_y6kFSTKeRqe08O-38" value="" style="align=left;strokeColor=#CCCCCC;html=1;container=0;" parent="1" vertex="1">
          <mxGeometry x="180" y="590" width="490" height="20" as="geometry" />
        </mxCell>
        <mxCell id="y6Vur_y6kFSTKeRqe08O-40" value="" style="whiteSpace=wrap;html=1;strokeWidth=2;fillColor=#CCCCCC;gradientColor=none;fontSize=14;align=center;strokeColor=#999999;container=0;" parent="1" vertex="1">
          <mxGeometry x="180" y="590" width="160" height="20" as="geometry" />
        </mxCell>
        <mxCell id="y6Vur_y6kFSTKeRqe08O-41" value="" style="whiteSpace=wrap;html=1;strokeWidth=2;fillColor=#CCCCCC;gradientColor=none;fontSize=14;align=center;strokeColor=#999999;container=0;" parent="1" vertex="1">
          <mxGeometry x="340" y="510" width="80" height="20" as="geometry" />
        </mxCell>
      </root>
    </mxGraphModel>
  </diagram>
  <diagram name="Pert" id="fc2ac565-0d4e-3f0d-88b0-a54af1634ed7">
    <mxGraphModel dx="1434" dy="844" grid="1" gridSize="10" guides="1" tooltips="1" connect="0" arrows="1" fold="1" page="1" pageScale="1.5" pageWidth="1169" pageHeight="827" background="none" math="0" shadow="0">
      <root>
        <mxCell id="0" style=";html=1;" />
        <mxCell id="1" style=";html=1;" parent="0" />
        <mxCell id="YJ6ArrLOvSLoP44ofC4y-100" value="" style="shape=image;verticalLabelPosition=bottom;labelBackgroundColor=default;verticalAlign=top;aspect=fixed;imageAspect=0;image=data:image/png,iVBORw0KGgoAAAANSUhEUgAAAb8AAAD/CAYAAABhPNiqAAAACXBIWXMAAA7DAAAOwwHHb6hkAAAazklEQVR4Xu2dwXXizBaEJ4s/EOfhMEjCMTgER+AEvGbtrZfeesnSW94phnpz3dMSMqAe38t3z/nGILWEoIuqVguGX//9998eavDr16/ucoAsoGEYgXRG+BUC44DsoGEYAeFXDIwDsoOGYQSEXzEwDsgOGoYREH7FwDggO2gYRkD4FQPjgOygYRgB4TfD6+vrXvXy8tJd/x12u91hXw8PD9311wLj+Hdcs49H6eUngoZ/Bh8fHwcNPj09dddnZ1j4+c2suuYb+u3t7bDP7XbbXd/j+fn5sI06t7fevL+/H9pdI/xchN9p7u/vj6/Wfv/5+bm/u7vrtjsH7U/1+PjYXd9jqcZc1+hjF+GXA+sqlvxFmrmmfq/FKQ9U4Kl0AtBbX4Eh4ac3sMoCkZn02s3hzmq3Jfy+UiH89HqrrBf1V6/dHNZFuy3h9/PJqOG5kuY2m013u3/FKQ/UMWvdTwzuazEk/Dx96Bdc9d0X1YaoQOqtXwPC79/gWYKlg5Qe1+y7pbgIv8vIHH7uL/mbzp482DpHw7AuQ8LPApAgJAJVbzSv0bjXaxsbl40slkPQo3K3dcWRfZxG032bagxSHZtDWqXbPpZooFoep3B1uzVYjfJ8zH4eLsJvHr12Kr326hNXb+Ss19V9ob/u8165j6xF9YNwxcGYp3ymNCaW9LF0p239mCo9r/asc6le1M7Hourta+o1yUSF8DN6/V3WcE9PPU9yO+nRXmTfXOJD9jTrT/v2MfQeT2gffiyVbsdrftpepWPT8sxaWz383Pl6sXTfL7pe1NjOhtOWxGRjiOX9eZ073oJRp3vf7WOqraontF5539Es27JAJLgoyrbaN8e1yR5+mlpU+U3ufmmnHNW/vdK6Xnl/LveDjSG+wdvHbDW2tI+ts14pGL+zL7WPIRrLptN7D2kbrctEpfCL66zBVk+i50luF0vt9BhTFX0ohpjL++89nt97vfKxzz22yrrOwOrhZyNxp8SzsPhC2QBkauo4rdO2rZHEzhIWiIVkA4hveovAHdjuKx6T96PH9TF5mdA+PHoS3nf7+Cofe2/ZWmQPPxu8teHXTn3hNrG/4psyDqhaXRiX+8EhKq3pvrTncj9PaUw118c6Ti33c4n7ntuut8zGpOPUfrRMx+Nlvfvatn2/ZKBq+Fk/PW2672J/uZ3eE9qv+t19v9SHvK2XtVrx4/XeU3ostVf5/ad9uezVPhtU9Z7/T2XV8NML43KnCXdUHM27pl68njhEKyQ9jg1UI+LYqT6Gdl+xQ71f0e5bSEBeHsttpo7TtbY4MoefZwliiEUN+Qxnqr8ivb4TLvdD3Jcey6YxF6RL+1j7U1vrPZbbLN2Xj6FXPlaZkLWvvzInB28mqoaftKX7PW32dNBrZ871IdOuj++D2K5dPtXOx+LgzMCq4Wcjmao4mnf1xCOmOtMvehSIR/P6q85QecQjlnZ8u++55+M2U8fpmnp+1yJz+Lnfpkrr1W6qvyI9XQhX7Aef4at/PdKNb+J2X0v7eO75uM3SffkYehW3VdhpUBlDMFsAVgq/6BlTMwmip4NeO3GJD5l2vY7bFdu1y6faTR3rT2bV8OuNeNuyWPxmlWFoxCx02+vdWR7l+g3de9F9BqF9+hgkGK9vOz6eHdr09Lg+Ju/b2zlIdYzev9v0xO4AVvn5rEXW8NNrearUH2oXp1ncX+pDa0NYF55dsF5csR88pehtVDEwWo0t7WNvF4/R5TZL9+Uglfb0GmhZi45PeL1DfW3NXZsK4ac+UN/aQ+w1wgMsLVM76cJaie28zLozuq+a8yFrSI/vY9Jfb+N9+PF67ynt18fq95b24dJ9M3WsP5nVwi++0aORGL8xPZp3Z7TljosmoXKnTb3oFp3Kpul1bccL7yeW9+F9R1Nqy230OPGxXV7m57MWWcPP/RtnA0zUktppWa+/VN6mPety/7hiP8Q3virqQrQaW9rHNo5euc3SfenvVPm49LdXvfffTyZz+PVKmvbARrReFqvnSe5fc4kPef/WSu/xenXqksPUsf5kVgs/d1B8cSN+8dVBcZlDUX/bFzIamtfZYNq2Hs2rHLCmd2wSSzQrbeMzyLjvOKWk0ZAfJ7aR0D0SU1utEyqb2VpkDb+pfjR+c6md7qu/1EexL/wGFXE0rTZe5/ZtP7i/VA5Y0zu2JX3cakq3fT8+/lK96Hbcn8sjde0nrm9fkyxk1LB1FUv6Uz9KB2376CNqp77zbbdxX2ofcVux1IeiHnRby7RuygO1vT1YpW1arbq8TPi9Zi1mYLXwg39D1vADMGgYRkD4FQPjgOygYRgB4VcMjAOyg4ZhBIRfMTAOyA4ahhEQfsXAOCA7aBhGQPgVA+OA7KBhGAHhVwyMA7KDhmEEhF8xMA7IDhqGERB+xcA4IDtoGEZA+BUD44DsoGEYAeFXDIwDsoOGYQSEXzEwDsgOGoYREH7FwDjG4f+dP/7nwHA5aBhGQPgVA+MYh395gfC7LmgYRkD4FQPjGMfa4eefj9FP1/TWVwUNwwgIv2JgHONYO/z0O2qu3vqqoGEYAeFXjEzG4TMb/WCmfnQ1/pBx/EHZ2M6BE8+GtG38Mdr4o51xH1ru0g/hxh8ZjT/iqX23690m/gCp99eG36nj8Q+Jan/tPt3Oz7Mt76N9Pr0fro3PSX+z/LAt4QcjIPyKkck4fGZj82/LvyAdz4BiaZ0MvVfap37NXW0UFL3HUDhovX8Fuy0FitYLB1avYvgtOZ6pYFMppKbaaB9ap/1MvWYOOH8YJ5a3/+kQfjACwq8YGcNPJbPXmVY0dp19te18RuYg8RmWg0zrfEakwNIybaNSW22nNmrvx3Q5bNXGZ0w+E/N97duPr9BTxfBbcjxa5/KyGK7eV3zeXiYc1j4WLfM+tax3X/tqz1B/KoQfjIDwK0bW8IvLbe4266l2Yq60H7VxSDmQInHfvfKZlEvtva0DJobKXPl4etvFbR24U8/bz6dXPluNZ7v6qwGABww/HcIPRkD4FaNC+PlM7dLwc9hdEn4OO5fvi++Gnx//VPj5Maae91z4xX0q7BS4MQQzBCDhByMg/IqRNfwUCJrCi2csPlOaCgHh6chesBlPO3raU8s0zahtdN8Vg60lTnvqvrbzFGcMnCXHc074eapVyz04iNOeLXoM4fU+rrnn+FMg/GAEhF8xsoZfr2z2sV27DwdJr3ohEssBNXcmNfc4DukYYkuOx21OhV8MZpeWTz0flZ/T1HH4Nf3JEH4wAsKvGFnDT9fWfHaiMyoHgNDZoCtub/TJRp+FxfK1M6H9u42vgfmsSH8VFn58l9p5exGnEBVcPq42xE4djz/cMhV+8bjVtheyen18RhvLH6DRPuJ6HY+vX/50CD8YAeFXjKzh11sPtwnhByMg/IpB+EF2CD8YAeFXjEzG4WlDVW893CaEH4yA8CsGxgHZQcMwAsKvGBgHZAcNwwgIv2JgHJAdNAwjIPyKgXFAdtAwjOAQfsd/AAAAbodeKkJO1KG95QBZQMMwAsKvGBgHZAcNwwgIv2JgHJAdNAwjIPyKgXFAdtAwjIDwKwbGAdlBwzACwq8YGAdkBw3DCAi/YmAckB00DCMg/IqBcUB20DCMgPArBsYB2UHDMALCrxgYB2QHDcMIyoff6+vr8Rfj9vuXl5dum0pgHJAdNDyPfOyUn/mHot/f37vroXj43d3d7T8/Pw+o9LfXrhIYB2QHDU8Tayr8FHguwm+a0uH39PR0EMB2u93vdrvD7cfHx27bKmAckB003EdBJh/TbVUv/HxWeH9/f2hP+E1TOvze3t4OQlDgKQBVWtZrWwWMA7KDhk+jmpv2FITfPGXDT1OeKk91bjabw32V1rXtq4BxQHbQ8GlUhN9llA2/5+fng0D0gRcv89SnpkNj20pgHNclDppcWuZZBVf1GYWRoOHTqAi/yygbfh8fHweBxGt8nvrUuti2EhjHdSH8xoOGT6Mi/C6jZPjpYu+pUpvettnBOCA7aPg0KsLvMkqGn8/w5uqUcLKCcUB20PBplngY4TdPyfCbu7bnL737I8PVwDggO2j4NCrC7zLKhZ+v0ehTnr1Pdfp/PlCpbbs+OxgHZAcN91GQ9SoO5BWIU1X1Us+5lAu/WwfjgOygYRgB4VcMjAOyg4ZhBIRfMTAOyA4ahhEQfsXAOCA7aBhGQPgVA+OA7KBhGAHhVwyMA7KDhmEEhF8xMA7IDhqGERzC7/gPAADA7dBLRciJOrS3HCALaBhGQPgVA+OA7KBhGAHhVwyMA7KDhmEEhF8xMA7IDhqGERB+xcA4IDtoGEZA+BUD44DsoGEYAeFXDIwDsoOGYQSEXzEwDsgOGoYREH7FwDggO2gYRkD4FQPjgOygYRhB2fD7/Pw8/nj/n3p/f98/Pj5221cB44DsoOHlvLy87D8+Po4Otz/cfn5+7raFr5QNv7nabDbdbSqAcUB20PAyFHxTVX2Qfw3Kh9/Dw8Ph/v39/XHJ/iCatn0VMA7IDhpehmayVNvt9nD/7u5uv9vtDssqe9y1uJnw09meizM/gJ8LGl6Gwy8GnadAn56evrSFvykffm1Vnw/HOCA7aHgZGsT7sw0KQgff6+trtz185ebCT1V5VIRxrEecPXBVnkX4V6Dh5cjLYikMPdsF85QPPwtB8+EaEakkkLZ9FTCO9SD8xoCGl+Hg03U+3ba/qfjAy2luJvyEbrti20pgHJAdNHwaDeZd+jCfl+vDLypNg8b28Dc3E36c+QHkAA2fJg7k/TkGedzb29thGeF3mvLh1yu+6gDwc0HDy/DXGnrFVx1OUzb8pv6Hl+ofAcY4IDtoeBma7tRsVvQ6feKzusddi7Lhd6tgHJAdNAwjIPyKgXFAdtAwjIDwKwbGAdlBwzACwq8YGAdkBw3DCAi/YmAckB00DCMg/IqBcUB20DCMgPArBsYB2UHDMALCrxgYB2QHDcMIDuF3/AcAAOB26KUi5EQd2lsOkAU0DCMg/IqBcUB20DCMgPArBsYB2UHDMALCrxgYB2QHDcMICL9iYByQHTQMIyD8ioFxQHbQMIyA8CsGxgHZQcMwAsKvGBgHZAcNwwgIv2JgHJAdNAwjIPyKgXFAdtAwjKB8+D09Pe3f39/3ro+Pj/3Ly0u3bQUwjnV4e3s7KuhPVdfSvwINT3N/f/9/LX5+fv61vqdTFTr9m9Lh9/r6euz6v+vh4aG7TXYwjnWIA6i2np+fu9vAeaDhPgqwtto2Uzol/P6mbPjpjM+lENSIScs3m81BIIQffAebik3k7u7ucOan0rq2PZwPGu6j2m63B1xtG+u0qr9dk7LhZxHIoHrrq4JxrEMv/Ha73WEZZ37XBQ3PE88A23WE33LKhp/r1k73MY51sKm0pWssvfZwPmh4niXh59J1wTjzBX8g/IqBcazDVPipZC69beA80PA83wk/l2Yp2ra3DuFXDIxjHWwqUU+a7nTpWnJsD+eDhueZC7+Ipubjh/6YCv1K2fDz9RiZVm99VTCOdeiFn3BhLNcDDc+zNPyEdOlCo18pG35RIO2nPXWdpqoQMI514MxvHGh4nrnw0wf8rMX2zI/rfl8pG37xo+i9IvzgO0xdS1Hd2uzC2qDhPnMadJup0tcj4r6gcPgJBaBGSTEEdTuO3quBcazD3P/wIp31toHzQMN9loSfBvWxnTSq7zzH/cBvSoffLYJxQHbQMIyA8CsGxgHZQcMwAsKvGBgHZAcNwwgIv2JgHJAdNAwjIPyKgXFAdtAwjIDwKwbGAdlBwzACwq8YGAdkBw3DCA7hd/wHAADgduilIuREHdpbDpAFNAwjIPyKgXFAdtAwjIDwKwbGAdlBwzACwq8YGAdkBw3DCAi/YmAckB00DCMg/IqBcUB20DCMgPArBsYB2UHDMALCrxgYB2QHDcMICL9iYByQHTQMIyD8ioFxQHbQMIygZPg9Pz8ff8T/T31+fu7f3t72j4+P3W2qgHGsy+vr61FR+/3Ly0u3DVwGGl6ONLjb7Y6K3B88brPZdNvCV0qGnwQxVzKw3nYVwDjW4+7u7jCIEir97bWDy0DDy9hutwcdtiVdSqu9beAPpcPv/f39/8s0GtKoyFX1DBDjWI+np6eDdmQ6Hm1Xn0n4F6DhZbg8AyGPc0mrbXv4ys2En/n4+DisUxC26yqAcayHB08KPI+6q+roX4KGT/Pw8HDQnyoul+eppM+4HP7m5sLP66pOWWEc66BppKibOMpmium6oOHT3N/fH9W3P3zGwcs8uO95H3zlZsNP1a6rAMaxDv4QVbxe7KlPppiuCxpeRvygS1uE32luNvwknHZdBTCOdfCIOl7j89Sn1sW2cBloeBnt5xikQ3meimnP09xc+Hm0xDU/WEqcYpoqteltC98HDZ+PB2meCoVpbib82lGSLhjHbaqAcVwfn+HNlTTX2xa+DxpehjxMvqbbuu5s3+OrDssoHX5TVXlKAOO4PnPX9vyl96rT6P8CNLwMT3G2xTXoZZQMv97/8CJz0plf1TM+g3FcF3+qc2o0HT9y7lE4XAYaXoZCzgMzlfyN750up2T43TIYB2QHDcMICL9iYByQHTQMIyD8ioFxQHbQMIyA8CsGxgHZQcMwAsKvGBgHZAcNwwgIv2JgHJAdNAwjIPyKgXFAdtAwjIDwKwbGAdlBwzCCQ/gd/wEAALgdeqkIOVGH9pYDZAENwwgIv2JgHJAdNAwjIPyKgXFAdtAwjIDwKwbGAdlBwzACwq8YGAdkBw3DCAi/YmAckB00DCMg/IqBcUB20DCMgPArBsYB2UHDMALCrxgYB2QHDcMICL9iYByQHTQMIygbfpvNZj9Vz8/P3W0qgHGsy/39/VFF+8PtXhu4DDT8PV5eXva73e6oyv3+7e1tf3d3120Lfygbfg8PD0cp/F2EH5yLjOb9/f2gI93utYHLQMPL+fj4OGixLflfrz384SbCr7e+KhjHumiE/fT0tH99fT3c7rWBy0DDy5AOVZ+fn/vHx8f/L5f3ceZ3GsKvGBjHelhT8bb+tu3gMtDwMjwDUXkma01uIvxiSTC99lXAONZDZ3tRPyoti23gctDwMnTGp9I1Pl/z07LtdtttD18h/IqBcayHSlNNvq/gU8U2cDloeBlzxfXo09xE+PXWVwXjWAdfX4mf8LTGYiDC5aDhZbgUdL7Gp7NAVfVB/jUg/IqBcayDr6/0CqO5Lmh4GZ72jIMvBaEKTZ6G8CsGxnF9/N2+3hmezYbv/F0PNLyMeJanMz/hQZrW9baBP9xE+LXF9/zgOzjgeuuY+rw+aHgZ+npDr3RGqP/ko7cN/KFs+PE/vMC10Cfp5j7VqfVMM10PNLwcBWD8orvO+Ai+ZZQNv1sF44DsoGEYAeFXDIwDsoOGYQSEXzEwDsgOGoYREH7FwDggO2gYRkD4FQPjgOygYRgB4VcMjAOyg4ZhBIRfMTAOyA4ahhEQfsXAOCA7aBhGQPgVA+OA7KBhGAHhVwyMA7KDhmEEhF8xMA7IDhqGERB+xcA4IDtoGEZwCL/jPwAAALdDLxUhJ+rQ3nKALKBhGAHhVwyMA7KDhmEEhF8xMA7IDhqGERB+xcA4IDtoGEZA+BUD44DsoGEYAeFXDIwDsoOGYQSEXzEwDsgOGoYREH7FwDggO2gYRkD4FQPjgOygYRgB4VcMjAOyg4ZhBKXD7/Pzc9+rh4eHbvsKYBzrcXd3t395edl/fHwclbTfv7+/7x8fH7vt4TzQ8DKen5+PKvxa0mSvPXyldPhNFeEH30XBF0Ovrd42cB5oeBkaiPWK8FvGTYRf5bBrwTjW4fX19aim/WHErTDUcp317Xa7v9rD+aDhZTj89Le3HuYh/IqBcayDa7vddtfD9UDDyyD8LoPwKwbGcX2kH9ctaelfgYaX0Zv2fHt7Q6MLuYnwa+v+/r7bvgIYx/Uh/MaChpfRCz9XZY+7FoRfMTCO60P4jQUNn0f89CdToae5ifC7JcPCOK6PBksuTGV90PD5uNDpaQi/YmAc66CPj7vaT3vqKxBtezgfNLwMXd+L3zGNZ35PT09f2sLfEH7FwDjWYbPZTP6nCareNnAeaHgZcUAWi8HYMkqHn82K8INroOlPfd9P3+tz8T+8XB80vAzr0SVdarrTsxIwT+nwu0UwDsgOGoYREH7FwDggO2gYRkD4FQPjgOygYRgB4VcMjAOyg4ZhBIRfMTAOyA4ahhEQfsXAOCA7aBhGQPgVA+OA7KBhGMEh/I7/AAAA3A69VIScqEN7ywGygIZhBIRfMTAOyA4ahhEQfsXAOCA7aBhGQPgVA+OA7KBhGAHhVwyMA7KDhmEEhF8xMA7IDhqGERB+xcA4IDtoGEZA+BUD44DsoGEYAeFXDIwDsoOGYQSEXzEwDsgOGoYRlA6/p6en/dvb2/FH/n/X+/t76Z/6xzjOY7PZHBXypz4/Pw/60breNi0PDw+H9tpOtdvt9q+vr2W1thZo+HvIz6Q1lzSI5k5TNvza0GtLRtXbLjsYx3lID1OlMOttE9FAa6pkTr1toA8aXs7Hx8dRZV+rqr9dk5Lht91ujxL4bTz39/eH5RoNPT4+Hs7+CD+IxPDzshhoc3qRvlwyI58parm0SPh9DzS8DOtTgzP5mpdLq5z5naZc+KnTXbdoOhjHefTC7/n5+XD/1JmfdObCdC4HDS9Dg3iVdNpbD/OUC79oYrdoRBjHeUTdxFLwzZ31CZuQ/vbWw/dAw8vwtWVd4vE1Py3TbEOvPXyldPh5mUfwsZZ+iCEbGMd5TIWfSoYypxfC77qg4WXMFVPtpykdfj7z64XfqdF8VjCO8+gNmnTNzh8o0Og6to8QftcFDS/DpaCz1/mDfmjxNOXCL374oDcX7iL8INILP+HreXNmoq8zqHSGyDW/y0HDy/C0pz744mVL9Aq/KRd+wmakkhj8ac8YjIQfRL5z5udPE3twFbdtP+0p/QlvC6dBw8uIZ3kadAndVs3NVMBvSoafRDD1/RcX4QeRGGC9inqxwcRQiwOutgi/74GGl6GvN/Tq1DVq+E3J8DMamduoXLqvkXvV6SmM4zxkFm3JRDSCbgdKHli1yzX9FPXG//ByHmh4OQrAONCXXgm+ZZQOv1sE41gXnyEyrbQeaBhGQPgVA+NYF4Wezug4m1sPNAwjIPyKgXFAdtAwjODXr1/7/wEh41/M7HU3PQAAAABJRU5ErkJggg==;" parent="1" vertex="1">
          <mxGeometry x="13" y="230" width="447" height="255" as="geometry" />
        </mxCell>
        <mxCell id="YJ6ArrLOvSLoP44ofC4y-119" value="" style="group" parent="1" connectable="0" vertex="1">
          <mxGeometry x="130" y="610" width="80" height="80" as="geometry" />
        </mxCell>
        <mxCell id="YJ6ArrLOvSLoP44ofC4y-120" value="" style="shape=lineEllipse;perimeter=ellipsePerimeter;whiteSpace=wrap;html=1;backgroundOutline=1;" parent="YJ6ArrLOvSLoP44ofC4y-119" vertex="1">
          <mxGeometry width="80" height="80" as="geometry" />
        </mxCell>
        <mxCell id="YJ6ArrLOvSLoP44ofC4y-121" value="" style="line;strokeWidth=2;direction=south;html=1;noLabel=0;" parent="YJ6ArrLOvSLoP44ofC4y-119" vertex="1">
          <mxGeometry x="35" width="10" height="40" as="geometry" />
        </mxCell>
        <mxCell id="YJ6ArrLOvSLoP44ofC4y-122" value="&lt;font style=&quot;font-size: 12px;&quot;&gt;&lt;b style=&quot;font-size: 12px;&quot;&gt;0&lt;/b&gt;&lt;/font&gt;" style="text;html=1;align=center;verticalAlign=middle;resizable=0;points=[];autosize=1;strokeColor=none;fillColor=none;fontSize=12;" parent="YJ6ArrLOvSLoP44ofC4y-119" vertex="1">
          <mxGeometry x="40" y="10" width="30" height="30" as="geometry" />
        </mxCell>
        <mxCell id="YJ6ArrLOvSLoP44ofC4y-123" value="&lt;font style=&quot;font-size: 12px;&quot;&gt;0&lt;/font&gt;" style="text;html=1;align=center;verticalAlign=middle;resizable=0;points=[];autosize=1;strokeColor=none;fillColor=none;labelBackgroundColor=none;fontStyle=1;fontSize=12;" parent="YJ6ArrLOvSLoP44ofC4y-119" vertex="1">
          <mxGeometry x="5" y="10" width="30" height="30" as="geometry" />
        </mxCell>
        <mxCell id="YJ6ArrLOvSLoP44ofC4y-124" value="&lt;font style=&quot;font-size: 14px;&quot;&gt;Text&lt;/font&gt;" style="text;html=1;align=center;verticalAlign=middle;resizable=0;points=[];autosize=1;strokeColor=none;fillColor=none;fontStyle=1" parent="YJ6ArrLOvSLoP44ofC4y-119" vertex="1">
          <mxGeometry x="15" y="45" width="50" height="30" as="geometry" />
        </mxCell>
        <mxCell id="YJ6ArrLOvSLoP44ofC4y-125" value="" style="group" parent="1" connectable="0" vertex="1">
          <mxGeometry x="475" y="450" width="80" height="80" as="geometry" />
        </mxCell>
        <mxCell id="YJ6ArrLOvSLoP44ofC4y-126" value="" style="shape=lineEllipse;perimeter=ellipsePerimeter;whiteSpace=wrap;html=1;backgroundOutline=1;" parent="YJ6ArrLOvSLoP44ofC4y-125" vertex="1">
          <mxGeometry width="80" height="80" as="geometry" />
        </mxCell>
        <mxCell id="YJ6ArrLOvSLoP44ofC4y-127" value="" style="line;strokeWidth=2;direction=south;html=1;noLabel=0;" parent="YJ6ArrLOvSLoP44ofC4y-125" vertex="1">
          <mxGeometry x="35" width="10" height="40" as="geometry" />
        </mxCell>
        <mxCell id="YJ6ArrLOvSLoP44ofC4y-128" value="&lt;font style=&quot;font-size: 12px;&quot;&gt;&lt;b style=&quot;font-size: 12px;&quot;&gt;20&lt;/b&gt;&lt;/font&gt;" style="text;html=1;align=center;verticalAlign=middle;resizable=0;points=[];autosize=1;strokeColor=none;fillColor=none;fontSize=12;" parent="YJ6ArrLOvSLoP44ofC4y-125" vertex="1">
          <mxGeometry x="35" y="10" width="40" height="30" as="geometry" />
        </mxCell>
        <mxCell id="YJ6ArrLOvSLoP44ofC4y-129" value="&lt;font style=&quot;font-size: 12px;&quot;&gt;11&lt;/font&gt;" style="text;html=1;align=center;verticalAlign=middle;resizable=0;points=[];autosize=1;strokeColor=none;fillColor=none;labelBackgroundColor=none;fontStyle=1;fontSize=12;" parent="YJ6ArrLOvSLoP44ofC4y-125" vertex="1">
          <mxGeometry y="10" width="40" height="30" as="geometry" />
        </mxCell>
        <mxCell id="YJ6ArrLOvSLoP44ofC4y-130" value="&lt;font style=&quot;font-size: 14px;&quot;&gt;Text&lt;/font&gt;" style="text;html=1;align=center;verticalAlign=middle;resizable=0;points=[];autosize=1;strokeColor=none;fillColor=none;fontStyle=1" parent="YJ6ArrLOvSLoP44ofC4y-125" vertex="1">
          <mxGeometry x="15" y="45" width="50" height="30" as="geometry" />
        </mxCell>
        <mxCell id="YJ6ArrLOvSLoP44ofC4y-131" value="" style="endArrow=classic;html=1;rounded=0;entryX=0.039;entryY=0.641;entryDx=0;entryDy=0;entryPerimeter=0;" parent="1" target="YJ6ArrLOvSLoP44ofC4y-126" edge="1">
          <mxGeometry width="50" height="50" relative="1" as="geometry">
            <mxPoint x="210" y="650" as="sourcePoint" />
            <mxPoint x="540" y="530" as="targetPoint" />
          </mxGeometry>
        </mxCell>
        <mxCell id="YJ6ArrLOvSLoP44ofC4y-132" value="B" style="text;html=1;align=center;verticalAlign=middle;resizable=0;points=[];autosize=1;strokeColor=none;fillColor=none;fontStyle=1" parent="1" vertex="1">
          <mxGeometry x="240" y="710" width="30" height="30" as="geometry" />
        </mxCell>
        <mxCell id="YJ6ArrLOvSLoP44ofC4y-139" value="" style="endArrow=classic;html=1;rounded=0;exitX=1.063;exitY=0.625;exitDx=0;exitDy=0;exitPerimeter=0;entryX=0;entryY=1.033;entryDx=0;entryDy=0;entryPerimeter=0;" parent="1" source="YJ6ArrLOvSLoP44ofC4y-126" target="U690Me8MN5omNgoKmj-H-6" edge="1">
          <mxGeometry width="50" height="50" relative="1" as="geometry">
            <mxPoint x="490" y="440" as="sourcePoint" />
            <mxPoint x="837.3" y="509.8499999999999" as="targetPoint" />
          </mxGeometry>
        </mxCell>
        <mxCell id="YJ6ArrLOvSLoP44ofC4y-141" value="" style="group" parent="1" connectable="0" vertex="1">
          <mxGeometry x="350" y="760" width="80" height="80" as="geometry" />
        </mxCell>
        <mxCell id="YJ6ArrLOvSLoP44ofC4y-142" value="" style="shape=lineEllipse;perimeter=ellipsePerimeter;whiteSpace=wrap;html=1;backgroundOutline=1;" parent="YJ6ArrLOvSLoP44ofC4y-141" vertex="1">
          <mxGeometry width="80" height="80" as="geometry" />
        </mxCell>
        <mxCell id="YJ6ArrLOvSLoP44ofC4y-143" value="" style="line;strokeWidth=2;direction=south;html=1;noLabel=0;" parent="YJ6ArrLOvSLoP44ofC4y-141" vertex="1">
          <mxGeometry x="35" width="10" height="40" as="geometry" />
        </mxCell>
        <mxCell id="YJ6ArrLOvSLoP44ofC4y-144" value="&lt;font style=&quot;font-size: 12px;&quot;&gt;&lt;b style=&quot;font-size: 12px;&quot;&gt;8&lt;/b&gt;&lt;/font&gt;" style="text;html=1;align=center;verticalAlign=middle;resizable=0;points=[];autosize=1;strokeColor=none;fillColor=none;fontSize=12;" parent="YJ6ArrLOvSLoP44ofC4y-141" vertex="1">
          <mxGeometry x="40" y="10" width="30" height="30" as="geometry" />
        </mxCell>
        <mxCell id="YJ6ArrLOvSLoP44ofC4y-145" value="&lt;font style=&quot;font-size: 12px;&quot;&gt;8&lt;/font&gt;" style="text;html=1;align=center;verticalAlign=middle;resizable=0;points=[];autosize=1;strokeColor=none;fillColor=none;labelBackgroundColor=none;fontStyle=1;fontSize=12;" parent="YJ6ArrLOvSLoP44ofC4y-141" vertex="1">
          <mxGeometry x="5" y="10" width="30" height="30" as="geometry" />
        </mxCell>
        <mxCell id="YJ6ArrLOvSLoP44ofC4y-146" value="&lt;font style=&quot;font-size: 14px;&quot;&gt;Text&lt;/font&gt;" style="text;html=1;align=center;verticalAlign=middle;resizable=0;points=[];autosize=1;strokeColor=none;fillColor=none;fontStyle=1" parent="YJ6ArrLOvSLoP44ofC4y-141" vertex="1">
          <mxGeometry x="15" y="45" width="50" height="30" as="geometry" />
        </mxCell>
        <mxCell id="YJ6ArrLOvSLoP44ofC4y-147" value="" style="endArrow=classic;html=1;rounded=0;exitX=1.004;exitY=0.534;exitDx=0;exitDy=0;exitPerimeter=0;entryX=0.004;entryY=0.534;entryDx=0;entryDy=0;entryPerimeter=0;" parent="1" source="YJ6ArrLOvSLoP44ofC4y-120" target="YJ6ArrLOvSLoP44ofC4y-142" edge="1">
          <mxGeometry width="50" height="50" relative="1" as="geometry">
            <mxPoint x="490" y="650" as="sourcePoint" />
            <mxPoint x="540" y="600" as="targetPoint" />
          </mxGeometry>
        </mxCell>
        <mxCell id="YJ6ArrLOvSLoP44ofC4y-148" value="A" style="text;html=1;align=center;verticalAlign=middle;resizable=0;points=[];autosize=1;strokeColor=none;fillColor=none;fontStyle=1" parent="1" vertex="1">
          <mxGeometry x="290" y="600" width="30" height="30" as="geometry" />
        </mxCell>
        <mxCell id="YJ6ArrLOvSLoP44ofC4y-149" value="" style="group" parent="1" connectable="0" vertex="1">
          <mxGeometry x="560" y="910" width="80" height="80" as="geometry" />
        </mxCell>
        <mxCell id="YJ6ArrLOvSLoP44ofC4y-150" value="" style="shape=lineEllipse;perimeter=ellipsePerimeter;whiteSpace=wrap;html=1;backgroundOutline=1;" parent="YJ6ArrLOvSLoP44ofC4y-149" vertex="1">
          <mxGeometry width="80" height="80" as="geometry" />
        </mxCell>
        <mxCell id="YJ6ArrLOvSLoP44ofC4y-151" value="" style="line;strokeWidth=2;direction=south;html=1;noLabel=0;" parent="YJ6ArrLOvSLoP44ofC4y-149" vertex="1">
          <mxGeometry x="35" width="10" height="40" as="geometry" />
        </mxCell>
        <mxCell id="YJ6ArrLOvSLoP44ofC4y-152" value="&lt;font style=&quot;font-size: 12px;&quot;&gt;&lt;b style=&quot;font-size: 12px;&quot;&gt;23&lt;/b&gt;&lt;/font&gt;" style="text;html=1;align=center;verticalAlign=middle;resizable=0;points=[];autosize=1;strokeColor=none;fillColor=none;fontSize=12;" parent="YJ6ArrLOvSLoP44ofC4y-149" vertex="1">
          <mxGeometry x="35" y="10" width="40" height="30" as="geometry" />
        </mxCell>
        <mxCell id="YJ6ArrLOvSLoP44ofC4y-153" value="&lt;font style=&quot;font-size: 12px;&quot;&gt;23&lt;/font&gt;" style="text;html=1;align=center;verticalAlign=middle;resizable=0;points=[];autosize=1;strokeColor=none;fillColor=none;labelBackgroundColor=none;fontStyle=1;fontSize=12;" parent="YJ6ArrLOvSLoP44ofC4y-149" vertex="1">
          <mxGeometry y="10" width="40" height="30" as="geometry" />
        </mxCell>
        <mxCell id="YJ6ArrLOvSLoP44ofC4y-154" value="&lt;font style=&quot;font-size: 14px;&quot;&gt;Text&lt;/font&gt;" style="text;html=1;align=center;verticalAlign=middle;resizable=0;points=[];autosize=1;strokeColor=none;fillColor=none;fontStyle=1" parent="YJ6ArrLOvSLoP44ofC4y-149" vertex="1">
          <mxGeometry x="15" y="45" width="50" height="30" as="geometry" />
        </mxCell>
        <mxCell id="YJ6ArrLOvSLoP44ofC4y-155" value="" style="endArrow=classic;html=1;rounded=0;entryX=0.049;entryY=0.919;entryDx=0;entryDy=0;entryPerimeter=0;exitX=0.905;exitY=0.793;exitDx=0;exitDy=0;exitPerimeter=0;" parent="1" source="YJ6ArrLOvSLoP44ofC4y-142" target="YJ6ArrLOvSLoP44ofC4y-153" edge="1">
          <mxGeometry width="50" height="50" relative="1" as="geometry">
            <mxPoint x="390" y="800" as="sourcePoint" />
            <mxPoint x="540" y="600" as="targetPoint" />
          </mxGeometry>
        </mxCell>
        <mxCell id="YJ6ArrLOvSLoP44ofC4y-156" value="D" style="text;html=1;align=center;verticalAlign=middle;resizable=0;points=[];autosize=1;strokeColor=none;fillColor=none;fontStyle=1" parent="1" vertex="1">
          <mxGeometry x="640" y="510" width="30" height="30" as="geometry" />
        </mxCell>
        <mxCell id="YJ6ArrLOvSLoP44ofC4y-166" value="9" style="text;html=1;align=center;verticalAlign=middle;resizable=0;points=[];autosize=1;strokeColor=none;fillColor=none;" parent="1" vertex="1">
          <mxGeometry x="645" y="480" width="30" height="30" as="geometry" />
        </mxCell>
        <mxCell id="YJ6ArrLOvSLoP44ofC4y-167" value="11" style="text;html=1;align=center;verticalAlign=middle;resizable=0;points=[];autosize=1;strokeColor=none;fillColor=none;" parent="1" vertex="1">
          <mxGeometry x="270" y="580" width="40" height="30" as="geometry" />
        </mxCell>
        <mxCell id="YJ6ArrLOvSLoP44ofC4y-168" value="8" style="text;html=1;align=center;verticalAlign=middle;resizable=0;points=[];autosize=1;strokeColor=none;fillColor=none;" parent="1" vertex="1">
          <mxGeometry x="260" y="690" width="30" height="30" as="geometry" />
        </mxCell>
        <mxCell id="YJ6ArrLOvSLoP44ofC4y-179" value="D,E,F,G" style="text;html=1;align=center;verticalAlign=middle;resizable=0;points=[];autosize=1;strokeColor=none;fillColor=none;" parent="1" vertex="1">
          <mxGeometry x="475" y="288" width="70" height="30" as="geometry" />
        </mxCell>
        <mxCell id="YJ6ArrLOvSLoP44ofC4y-180" value="" style="group" parent="1" connectable="0" vertex="1">
          <mxGeometry x="797" y="700" width="80" height="80" as="geometry" />
        </mxCell>
        <mxCell id="YJ6ArrLOvSLoP44ofC4y-181" value="" style="shape=lineEllipse;perimeter=ellipsePerimeter;whiteSpace=wrap;html=1;backgroundOutline=1;" parent="YJ6ArrLOvSLoP44ofC4y-180" vertex="1">
          <mxGeometry width="80" height="80" as="geometry" />
        </mxCell>
        <mxCell id="YJ6ArrLOvSLoP44ofC4y-182" value="" style="line;strokeWidth=2;direction=south;html=1;noLabel=0;" parent="YJ6ArrLOvSLoP44ofC4y-180" vertex="1">
          <mxGeometry x="35" width="10" height="40" as="geometry" />
        </mxCell>
        <mxCell id="YJ6ArrLOvSLoP44ofC4y-183" value="&lt;font style=&quot;font-size: 12px;&quot;&gt;&lt;b style=&quot;font-size: 12px;&quot;&gt;29&lt;/b&gt;&lt;/font&gt;" style="text;html=1;align=center;verticalAlign=middle;resizable=0;points=[];autosize=1;strokeColor=none;fillColor=none;fontSize=12;" parent="YJ6ArrLOvSLoP44ofC4y-180" vertex="1">
          <mxGeometry x="35" y="10" width="40" height="30" as="geometry" />
        </mxCell>
        <mxCell id="YJ6ArrLOvSLoP44ofC4y-184" value="&lt;font style=&quot;font-size: 12px;&quot;&gt;29&lt;/font&gt;" style="text;html=1;align=center;verticalAlign=middle;resizable=0;points=[];autosize=1;strokeColor=none;fillColor=none;labelBackgroundColor=none;fontStyle=1;fontSize=12;" parent="YJ6ArrLOvSLoP44ofC4y-180" vertex="1">
          <mxGeometry y="10" width="40" height="30" as="geometry" />
        </mxCell>
        <mxCell id="YJ6ArrLOvSLoP44ofC4y-185" value="&lt;font style=&quot;font-size: 14px;&quot;&gt;Text&lt;/font&gt;" style="text;html=1;align=center;verticalAlign=middle;resizable=0;points=[];autosize=1;strokeColor=none;fillColor=none;fontStyle=1" parent="YJ6ArrLOvSLoP44ofC4y-180" vertex="1">
          <mxGeometry x="15" y="45" width="50" height="30" as="geometry" />
        </mxCell>
        <mxCell id="YJ6ArrLOvSLoP44ofC4y-186" value="" style="endArrow=classic;html=1;rounded=0;exitX=0.548;exitY=1.007;exitDx=0;exitDy=0;exitPerimeter=0;entryX=0.013;entryY=0.623;entryDx=0;entryDy=0;entryPerimeter=0;" parent="1" source="YJ6ArrLOvSLoP44ofC4y-126" target="YJ6ArrLOvSLoP44ofC4y-181" edge="1">
          <mxGeometry width="50" height="50" relative="1" as="geometry">
            <mxPoint x="490" y="580" as="sourcePoint" />
            <mxPoint x="540" y="530" as="targetPoint" />
          </mxGeometry>
        </mxCell>
        <mxCell id="YJ6ArrLOvSLoP44ofC4y-187" value="E" style="text;html=1;align=center;verticalAlign=middle;resizable=0;points=[];autosize=1;strokeColor=none;fillColor=none;" parent="1" vertex="1">
          <mxGeometry x="660" y="650" width="30" height="30" as="geometry" />
        </mxCell>
        <mxCell id="YJ6ArrLOvSLoP44ofC4y-188" value="C" style="text;html=1;align=center;verticalAlign=middle;resizable=0;points=[];autosize=1;strokeColor=none;fillColor=none;" parent="1" vertex="1">
          <mxGeometry x="460" y="880" width="30" height="30" as="geometry" />
        </mxCell>
        <mxCell id="YJ6ArrLOvSLoP44ofC4y-197" value="" style="endArrow=classic;html=1;rounded=0;exitX=0.655;exitY=0.043;exitDx=0;exitDy=0;exitPerimeter=0;entryX=0.13;entryY=0.82;entryDx=0;entryDy=0;entryPerimeter=0;" parent="1" source="YJ6ArrLOvSLoP44ofC4y-150" target="YJ6ArrLOvSLoP44ofC4y-181" edge="1">
          <mxGeometry width="50" height="50" relative="1" as="geometry">
            <mxPoint x="490" y="800" as="sourcePoint" />
            <mxPoint x="540" y="750" as="targetPoint" />
          </mxGeometry>
        </mxCell>
        <mxCell id="YJ6ArrLOvSLoP44ofC4y-198" value="6" style="text;html=1;align=center;verticalAlign=middle;resizable=0;points=[];autosize=1;strokeColor=none;fillColor=none;" parent="1" vertex="1">
          <mxGeometry x="670" y="635" width="30" height="30" as="geometry" />
        </mxCell>
        <mxCell id="YJ6ArrLOvSLoP44ofC4y-199" value="15" style="text;html=1;align=center;verticalAlign=middle;resizable=0;points=[];autosize=1;strokeColor=none;fillColor=none;" parent="1" vertex="1">
          <mxGeometry x="480" y="870" width="40" height="30" as="geometry" />
        </mxCell>
        <mxCell id="YJ6ArrLOvSLoP44ofC4y-200" value="F" style="text;html=1;align=center;verticalAlign=middle;resizable=0;points=[];autosize=1;strokeColor=none;fillColor=none;" parent="1" vertex="1">
          <mxGeometry x="680" y="850" width="30" height="30" as="geometry" />
        </mxCell>
        <mxCell id="YJ6ArrLOvSLoP44ofC4y-201" value="5" style="text;html=1;align=center;verticalAlign=middle;resizable=0;points=[];autosize=1;strokeColor=none;fillColor=none;" parent="1" vertex="1">
          <mxGeometry x="675" y="828" width="30" height="30" as="geometry" />
        </mxCell>
        <mxCell id="U690Me8MN5omNgoKmj-H-1" value="" style="endArrow=classic;html=1;rounded=0;exitX=0.46;exitY=1.133;exitDx=0;exitDy=0;exitPerimeter=0;entryX=0.475;entryY=-0.012;entryDx=0;entryDy=0;entryPerimeter=0;dashed=1;" edge="1" parent="1" source="U690Me8MN5omNgoKmj-H-7" target="YJ6ArrLOvSLoP44ofC4y-181">
          <mxGeometry width="50" height="50" relative="1" as="geometry">
            <mxPoint x="940" y="540" as="sourcePoint" />
            <mxPoint x="1205" y="744" as="targetPoint" />
          </mxGeometry>
        </mxCell>
        <mxCell id="U690Me8MN5omNgoKmj-H-2" value="" style="group" connectable="0" vertex="1" parent="1">
          <mxGeometry x="770" y="480" width="80" height="80" as="geometry" />
        </mxCell>
        <mxCell id="U690Me8MN5omNgoKmj-H-3" value="" style="shape=lineEllipse;perimeter=ellipsePerimeter;whiteSpace=wrap;html=1;backgroundOutline=1;" vertex="1" parent="U690Me8MN5omNgoKmj-H-2">
          <mxGeometry width="80" height="80" as="geometry" />
        </mxCell>
        <mxCell id="U690Me8MN5omNgoKmj-H-4" value="" style="line;strokeWidth=2;direction=south;html=1;noLabel=0;" vertex="1" parent="U690Me8MN5omNgoKmj-H-2">
          <mxGeometry x="35" width="10" height="40" as="geometry" />
        </mxCell>
        <mxCell id="U690Me8MN5omNgoKmj-H-5" value="&lt;font style=&quot;font-size: 12px;&quot;&gt;&lt;b style=&quot;font-size: 12px;&quot;&gt;20&lt;/b&gt;&lt;/font&gt;" style="text;html=1;align=center;verticalAlign=middle;resizable=0;points=[];autosize=1;strokeColor=none;fillColor=none;fontSize=12;" vertex="1" parent="U690Me8MN5omNgoKmj-H-2">
          <mxGeometry x="35" y="10" width="40" height="30" as="geometry" />
        </mxCell>
        <mxCell id="U690Me8MN5omNgoKmj-H-6" value="&lt;font style=&quot;font-size: 12px;&quot;&gt;11&lt;/font&gt;" style="text;html=1;align=center;verticalAlign=middle;resizable=0;points=[];autosize=1;strokeColor=none;fillColor=none;labelBackgroundColor=none;fontStyle=1;fontSize=12;" vertex="1" parent="U690Me8MN5omNgoKmj-H-2">
          <mxGeometry y="10" width="40" height="30" as="geometry" />
        </mxCell>
        <mxCell id="U690Me8MN5omNgoKmj-H-7" value="&lt;font style=&quot;font-size: 14px;&quot;&gt;Text&lt;/font&gt;" style="text;html=1;align=center;verticalAlign=middle;resizable=0;points=[];autosize=1;strokeColor=none;fillColor=none;fontStyle=1" vertex="1" parent="U690Me8MN5omNgoKmj-H-2">
          <mxGeometry x="15" y="45" width="50" height="30" as="geometry" />
        </mxCell>
        <mxCell id="U690Me8MN5omNgoKmj-H-8" value="" style="endArrow=classic;html=1;rounded=0;exitX=0.1;exitY=0.813;exitDx=0;exitDy=0;exitPerimeter=0;dashed=1;entryX=1.075;entryY=0.633;entryDx=0;entryDy=0;entryPerimeter=0;" edge="1" parent="1" source="YJ6ArrLOvSLoP44ofC4y-150" target="U690Me8MN5omNgoKmj-H-13">
          <mxGeometry width="50" height="50" relative="1" as="geometry">
            <mxPoint x="390" y="910" as="sourcePoint" />
            <mxPoint x="520" y="1060" as="targetPoint" />
          </mxGeometry>
        </mxCell>
        <mxCell id="U690Me8MN5omNgoKmj-H-9" value="" style="endArrow=classic;html=1;rounded=0;exitX=-0.1;exitY=1.167;exitDx=0;exitDy=0;exitPerimeter=0;dashed=1;entryX=0.275;entryY=-0.033;entryDx=0;entryDy=0;entryPerimeter=0;" edge="1" parent="1" source="YJ6ArrLOvSLoP44ofC4y-146" target="U690Me8MN5omNgoKmj-H-14">
          <mxGeometry width="50" height="50" relative="1" as="geometry">
            <mxPoint x="371" y="870" as="sourcePoint" />
            <mxPoint x="320" y="990" as="targetPoint" />
          </mxGeometry>
        </mxCell>
        <mxCell id="U690Me8MN5omNgoKmj-H-10" value="" style="group" connectable="0" vertex="1" parent="1">
          <mxGeometry x="360" y="1010" width="80" height="80" as="geometry" />
        </mxCell>
        <mxCell id="U690Me8MN5omNgoKmj-H-11" value="" style="shape=lineEllipse;perimeter=ellipsePerimeter;whiteSpace=wrap;html=1;backgroundOutline=1;" vertex="1" parent="U690Me8MN5omNgoKmj-H-10">
          <mxGeometry width="80" height="80" as="geometry" />
        </mxCell>
        <mxCell id="U690Me8MN5omNgoKmj-H-12" value="" style="line;strokeWidth=2;direction=south;html=1;noLabel=0;" vertex="1" parent="U690Me8MN5omNgoKmj-H-10">
          <mxGeometry x="35" width="10" height="40" as="geometry" />
        </mxCell>
        <mxCell id="U690Me8MN5omNgoKmj-H-13" value="&lt;font style=&quot;font-size: 12px;&quot;&gt;&lt;b style=&quot;font-size: 12px;&quot;&gt;23&lt;/b&gt;&lt;/font&gt;" style="text;html=1;align=center;verticalAlign=middle;resizable=0;points=[];autosize=1;strokeColor=none;fillColor=none;fontSize=12;" vertex="1" parent="U690Me8MN5omNgoKmj-H-10">
          <mxGeometry x="35" y="10" width="40" height="30" as="geometry" />
        </mxCell>
        <mxCell id="U690Me8MN5omNgoKmj-H-14" value="&lt;font style=&quot;font-size: 12px;&quot;&gt;23&lt;/font&gt;" style="text;html=1;align=center;verticalAlign=middle;resizable=0;points=[];autosize=1;strokeColor=none;fillColor=none;labelBackgroundColor=none;fontStyle=1;fontSize=12;" vertex="1" parent="U690Me8MN5omNgoKmj-H-10">
          <mxGeometry y="10" width="40" height="30" as="geometry" />
        </mxCell>
        <mxCell id="U690Me8MN5omNgoKmj-H-15" value="&lt;font style=&quot;font-size: 14px;&quot;&gt;Text&lt;/font&gt;" style="text;html=1;align=center;verticalAlign=middle;resizable=0;points=[];autosize=1;strokeColor=none;fillColor=none;fontStyle=1" vertex="1" parent="U690Me8MN5omNgoKmj-H-10">
          <mxGeometry x="15" y="45" width="50" height="30" as="geometry" />
        </mxCell>
        <mxCell id="U690Me8MN5omNgoKmj-H-16" value="" style="endArrow=classic;html=1;rounded=0;exitX=0.95;exitY=0.675;exitDx=0;exitDy=0;exitPerimeter=0;entryX=0.58;entryY=1.167;entryDx=0;entryDy=0;entryPerimeter=0;" edge="1" parent="1" source="U690Me8MN5omNgoKmj-H-11" target="YJ6ArrLOvSLoP44ofC4y-185">
          <mxGeometry width="50" height="50" relative="1" as="geometry">
            <mxPoint x="610" y="1117" as="sourcePoint" />
            <mxPoint x="900" y="960" as="targetPoint" />
            <Array as="points">
              <mxPoint x="700" y="1064" />
            </Array>
          </mxGeometry>
        </mxCell>
        <mxCell id="fYqNgzCr6fKM9xX9HrZi-1" value="6" style="text;html=1;align=center;verticalAlign=middle;resizable=0;points=[];autosize=1;strokeColor=none;fillColor=none;" vertex="1" parent="1">
          <mxGeometry x="680" y="990" width="30" height="30" as="geometry" />
        </mxCell>
        <mxCell id="fYqNgzCr6fKM9xX9HrZi-2" value="G" style="text;html=1;align=center;verticalAlign=middle;resizable=0;points=[];autosize=1;strokeColor=none;fillColor=none;" vertex="1" parent="1">
          <mxGeometry x="730" y="1000" width="30" height="30" as="geometry" />
        </mxCell>
      </root>
    </mxGraphModel>
  </diagram>
</mxfile>
